#!OML:ASF H:\Dans Jumps\Project 1\Capture day 1\Session 1\subject.ASF
:FULLY-SPECIFIED
:DEGREES
675
root 0.465731 17.7356 -3.06836 6.51204 -0.39515 -1.38607
lowerback 0.0398706 -0.43451 0.123267
upperback 3.35644 -0.634479 1.78202
thorax 3.44582 -0.342203 1.74559
lowerneck -12.4717 0.369019 -1.95931
upperneck 36.3517 0.86996 0.604832
head 14.6086 0.181382 0.7341
rclavicle -9.93923e-016 0
rhumerus -26.6643 -15.7486 -79.6531
rradius 23.2534
rwrist 33.411
rhand -18.4636 -26.1649
rfingers 7.12502
rthumb 7.82294 -56.0002
lclavicle -9.93923e-016 0
lhumerus -24.3028 -4.77954 91.4632
lradius 17.8947
lwrist 9.58215
lhand -25.2638 -3.52605
lfingers 7.12502
lthumb 1.25677 26.45
rfemur -17.024 -0.818335 19.0243
rtibia 23.1385
rfoot -11.6555 -1.2251
rtoes 13.6333
lfemur -15.3704 7.15193 -17.6907
ltibia 20.2722
lfoot -9.08717 2.94809
ltoes 2.99126
676
root 0.465714 17.7353 -3.06797 6.50928 -0.381129 -1.39369
lowerback 0.0390458 -0.435963 0.134223
upperback 3.3575 -0.636707 1.78412
thorax 3.44735 -0.343033 1.74154
lowerneck -12.4615 0.368395 -1.95433
upperneck 36.354 0.87082 0.595747
head 14.6074 0.181245 0.729573
rclavicle 1.12313e-014 -1.23246e-014
rhumerus -26.657 -15.754 -79.6574
rradius 23.2556
rwrist 33.4055
rhand -18.4905 -26.1357
rfingers 7.12502
rthumb 7.79695 -55.9719
lclavicle 1.12313e-014 -1.23246e-014
lhumerus -24.2949 -4.77302 91.4559
lradius 17.9019
lwrist 9.5806
lhand -25.3498 -3.6588
lfingers 7.12502
lthumb 1.17377 26.3177
rfemur -17.0203 -0.825343 19.034
rtibia 23.1432
rfoot -11.6555 -1.23359
rtoes 13.6096
lfemur -15.3792 7.14588 -17.682
ltibia 20.2916
lfoot -9.09298 2.94579
ltoes 2.96326
677
root 0.46573 17.7349 -3.06759 6.50353 -0.364871 -1.39972
lowerback 0.0408925 -0.437966 0.143501
upperback 3.36049 -0.639644 1.78644
thorax 3.44942 -0.344279 1.73864
lowerneck -12.4516 0.368259 -1.95199
upperneck 36.3526 0.872644 0.588108
head 14.6045 0.1814 0.726234
rclavicle 2.78299e-015 1.47101e-014
rhumerus -26.6484 -15.7541 -79.6622
rradius 23.2604
rwrist 33.394
rhand -18.5112 -26.1126
rfingers 7.12502
rthumb 7.77693 -55.9496
lclavicle 2.78299e-015 1.47101e-014
lhumerus -24.2841 -4.76417 91.4487
lradius 17.9111
lwrist 9.58247
lhand -25.4551 -3.80829
lfingers 7.12502
lthumb 1.07205 26.1688
rfemur -17.0143 -0.837661 19.0421
rtibia 23.15
rfoot -11.6545 -1.23812
rtoes 13.5834
lfemur -15.3858 7.1374 -17.6749
ltibia 20.3128
lfoot -9.09921 2.94275
ltoes 2.94446
678
root 0.465811 17.7346 -3.06726 6.49641 -0.348134 -1.40424
lowerback 0.0441685 -0.439338 0.152248
upperback 3.364 -0.641691 1.78778
thorax 3.45119 -0.345081 1.73508
lowerneck -12.4409 0.368139 -1.94927
upperneck 36.3499 0.874185 0.581032
head 14.6008 0.181589 0.723003
rclavicle -1.98785e-015 1.19271e-015
rhumerus -26.6423 -15.7509 -79.6681
rradius 23.2695
rwrist 33.3761
rhand -18.5281 -26.0939
rfingers 7.12502
rthumb 7.76068 -55.9315
lclavicle -1.98785e-015 1.19271e-015
lhumerus -24.2711 -4.75576 91.4407
lradius 17.9201
lwrist 9.5895
lhand -25.5089 -3.87433
lfingers 7.12502
lthumb 1.02007 26.103
rfemur -17.0082 -0.853492 19.0484
rtibia 23.159
rfoot -11.6518 -1.23866
rtoes 13.5695
lfemur -15.3918 7.12591 -17.6696
ltibia 20.3355
lfoot -9.10418 2.94141
ltoes 2.93422
679
root 0.465928 17.7343 -3.06707 6.48863 -0.332067 -1.40931
lowerback 0.0487835 -0.439751 0.161577
upperback 3.36854 -0.642477 1.7894
thorax 3.45322 -0.345247 1.73152
lowerneck -12.434 0.369211 -1.95176
upperneck 36.3483 0.876404 0.581434
head 14.5984 0.182359 0.723927
rclavicle -2.5842e-015 9.14409e-015
rhumerus -26.6374 -15.7398 -79.6752
rradius 23.2855
rwrist 33.349
rhand -18.5313 -26.0855
rfingers 7.12502
rthumb 7.75758 -55.9232
lclavicle -2.5842e-015 9.14409e-015
lhumerus -24.2555 -4.75424 91.4348
lradius 17.9311
lwrist 9.60637
lhand -25.487 -3.82388
lfingers 7.12502
lthumb 1.04121 26.1533
rfemur -17.0044 -0.871749 19.0554
rtibia 23.171
rfoot -11.644 -1.23564
rtoes 13.5547
lfemur -15.3992 7.11362 -17.6642
ltibia 20.3612
lfoot -9.10798 2.93993
ltoes 2.92423
680
root 0.466021 17.734 -3.06697 6.48064 -0.317775 -1.41351
lowerback 0.0539907 -0.439112 0.167977
upperback 3.37392 -0.641831 1.79172
thorax 3.45579 -0.344801 1.73037
lowerneck -12.432 0.370393 -1.95613
upperneck 36.3486 0.878816 0.583678
head 14.598 0.183187 0.726021
rclavicle 7.45443e-015 9.14409e-015
rhumerus -26.6318 -15.7303 -79.6799
rradius 23.2999
rwrist 33.3241
rhand -18.524 -26.0883
rfingers 7.12502
rthumb 7.76457 -55.9258
lclavicle 7.45443e-015 9.14409e-015
lhumerus -24.2391 -4.7561 91.4317
lradius 17.9393
lwrist 9.6174
lhand -25.4762 -3.7879
lfingers 7.12502
lthumb 1.05166 26.1893
rfemur -17.0043 -0.890089 19.0619
rtibia 23.1867
rfoot -11.6298 -1.2322
rtoes 13.5406
lfemur -15.4089 7.10113 -17.6598
ltibia 20.3923
lfoot -9.1123 2.93908
ltoes 2.92451
681
root 0.465762 17.7337 -3.06769 6.48322 -0.315011 -1.41977
lowerback 0.0492082 -0.438715 0.170315
upperback 3.37486 -0.64156 1.79645
thorax 3.4595 -0.34469 1.73391
lowerneck -12.4177 0.371094 -1.97702
upperneck 36.3485 0.880951 0.596302
head 14.5945 0.183002 0.735196
rclavicle -9.24349e-015 -7.95139e-015
rhumerus -26.6281 -15.6743 -79.6986
rradius 23.3264
rwrist 33.2652
rhand -18.5007 -26.1373
rfingers 7.12502
rthumb 7.78707 -55.9739
lclavicle -9.24349e-015 -7.95139e-015
lhumerus -24.2274 -4.7543 91.4293
lradius 17.9507
lwrist 9.64518
lhand -25.4724 -3.76539
lfingers 7.12502
lthumb 1.05529 26.2117
rfemur -17.024 -0.899358 19.072
rtibia 23.2059
rfoot -11.6016 -1.22777
rtoes 13.5182
lfemur -15.4357 7.10038 -17.655
ltibia 20.4299
lfoot -9.11402 2.93737
ltoes 2.92685
682
root 0.46513 17.7334 -3.06932 6.49515 -0.320189 -1.42903
lowerback 0.0371772 -0.439053 0.169343
upperback 3.37277 -0.642327 1.80371
thorax 3.46427 -0.34523 1.74184
lowerneck -12.3952 0.371179 -2.00777
upperneck 36.3472 0.882836 0.613766
head 14.5883 0.18199 0.748002
rclavicle 8.34896e-015 2.78299e-015
rhumerus -26.6221 -15.5836 -79.7284
rradius 23.3593
rwrist 33.1841
rhand -18.4695 -26.2186
rfingers 7.12502
rthumb 7.81717 -56.0541
lclavicle 8.34896e-015 2.78299e-015
lhumerus -24.2177 -4.75867 91.4309
lradius 17.959
lwrist 9.69311
lhand -25.4959 -3.79138
lfingers 7.12502
lthumb 1.03265 26.1859
rfemur -17.0624 -0.901674 19.0873
rtibia 23.2285
rfoot -11.5601 -1.22423
rtoes 13.4846
lfemur -15.479 7.11056 -17.6481
ltibia 20.4744
lfoot -9.11602 2.93101
ltoes 2.94492
683
root 0.464607 17.7332 -3.07112 6.5032 -0.32407 -1.43798
lowerback 0.0333739 -0.438647 0.167626
upperback 3.37069 -0.641981 1.81092
thorax 3.46437 -0.345222 1.75022
lowerneck -12.3741 0.371227 -2.03637
upperneck 36.3468 0.884028 0.631475
head 14.583 0.18101 0.76044
rclavicle -6.75868e-015 1.51076e-014
rhumerus -26.6172 -15.5011 -79.7533
rradius 23.3887
rwrist 33.1127
rhand -18.4424 -26.2909
rfingers 7.12502
rthumb 7.84338 -56.1255
lclavicle -6.75868e-015 1.51076e-014
lhumerus -24.2104 -4.76842 91.4359
lradius 17.9683
lwrist 9.73269
lhand -25.5241 -3.82435
lfingers 7.12502
lthumb 1.00539 26.153
rfemur -17.0999 -0.909199 19.1035
rtibia 23.2532
rfoot -11.5091 -1.22103
rtoes 13.4322
lfemur -15.5219 7.11755 -17.6415
ltibia 20.526
lfoot -9.12029 2.92682
ltoes 2.97217
684
root 0.464247 17.7329 -3.07314 6.50614 -0.325999 -1.44947
lowerback 0.0392449 -0.436415 0.169491
upperback 3.36992 -0.639144 1.81751
thorax 3.46025 -0.343848 1.7561
lowerneck -12.356 0.370844 -2.05844
upperneck 36.3462 0.883026 0.648666
head 14.5783 0.179942 0.771179
rclavicle -9.34288e-015 3.57812e-015
rhumerus -26.6112 -15.4379 -79.7713
rradius 23.4125
rwrist 33.0591
rhand -18.4493 -26.3226
rfingers 7.12502
rthumb 7.83668 -56.1574
lclavicle -9.34288e-015 3.57812e-015
lhumerus -24.2039 -4.78738 91.444
lradius 17.9789
lwrist 9.768
lhand -25.5524 -3.8684
lfingers 7.12502
lthumb 0.978098 26.1091
rfemur -17.134 -0.922684 19.1232
rtibia 23.2793
rfoot -11.4514 -1.21641
rtoes 13.366
lfemur -15.5623 7.12121 -17.6322
ltibia 20.5818
lfoot -9.12455 2.92576
ltoes 3.00519
685
root 0.464344 17.7326 -3.07503 6.49598 -0.317861 -1.4634
lowerback 0.0634969 -0.432751 0.177929
upperback 3.37301 -0.634317 1.82316
thorax 3.44958 -0.341266 1.75749
lowerneck -12.3477 0.369788 -2.06046
upperneck 36.3443 0.880598 0.652497
head 14.5755 0.179264 0.772691
rclavicle 4.17448e-015 -7.95139e-015
rhumerus -26.6033 -15.4188 -79.7736
rradius 23.4234
rwrist 33.0427
rhand -18.465 -26.3125
rfingers 7.12502
rthumb 7.8215 -56.1478
lclavicle 4.17448e-015 -7.95139e-015
lhumerus -24.1948 -4.82025 91.457
lradius 17.9897
lwrist 9.79096
lhand -25.5763 -3.91133
lfingers 7.12502
lthumb 0.954986 26.0663
rfemur -17.1521 -0.953488 19.1455
rtibia 23.3059
rfoot -11.3946 -1.2044
rtoes 13.3001
lfemur -15.5898 7.11229 -17.6193
ltibia 20.6399
lfoot -9.13004 2.92623
ltoes 3.05123
686
root 0.465018 17.7324 -3.07677 6.47291 -0.302035 -1.47721
lowerback 0.10284 -0.426913 0.190974
upperback 3.38133 -0.626501 1.82694
thorax 3.43564 -0.337037 1.75455
lowerneck -12.3449 0.368404 -2.04729
upperneck 36.3377 0.876509 0.648452
head 14.5719 0.178997 0.768007
rclavicle 3.27995e-015 -8.74653e-015
rhumerus -26.5921 -15.4455 -79.7598
rradius 23.4209
rwrist 33.0647
rhand -18.4963 -26.2527
rfingers 7.12502
rthumb 7.79138 -56.0891
lclavicle 3.27995e-015 -8.74653e-015
lhumerus -24.1812 -4.86164 91.4735
lradius 18.0018
lwrist 9.79642
lhand -25.5834 -3.93
lfingers 7.12502
lthumb 0.948104 26.0476
rfemur -17.1544 -1.00387 19.1666
rtibia 23.3334
rfoot -11.3415 -1.17923
rtoes 13.2468
lfemur -15.6042 7.09127 -17.6065
ltibia 20.6994
lfoot -9.13432 2.93175
ltoes 3.10286
